<svg width="297" height="42" viewBox="0 0 297 42" fill="none" xmlns="http://www.w3.org/2000/svg">
<g filter="url(#filter0_dd_1_2312)">
<rect x="2" width="293" height="36" rx="5" fill="#E8E7FE"/>
<rect x="10" y="8" width="4" height="20" rx="2" fill="#C0B6F7"/>
<path d="M30.8913 15.62H29.451C29.3956 15.3123 29.2925 15.0414 29.1417 14.8075C28.9909 14.5736 28.8062 14.3751 28.5877 14.212C28.3692 14.0489 28.1245 13.9258 27.8537 13.8427C27.5859 13.7596 27.3013 13.718 26.9996 13.718C26.4549 13.718 25.9671 13.855 25.5362 14.1289C25.1084 14.4028 24.7699 14.8045 24.5206 15.3338C24.2744 15.8632 24.1513 16.5095 24.1513 17.2727C24.1513 18.0421 24.2744 18.6915 24.5206 19.2209C24.7699 19.7502 25.11 20.1503 25.5408 20.4212C25.9717 20.692 26.4564 20.8274 26.995 20.8274C27.2936 20.8274 27.5767 20.7874 27.8445 20.7074C28.1153 20.6243 28.36 20.5027 28.5785 20.3427C28.797 20.1826 28.9817 19.9872 29.1325 19.7564C29.2863 19.5225 29.3925 19.2547 29.451 18.9531L30.8913 18.9577C30.8144 19.4225 30.6651 19.8503 30.4435 20.2411C30.225 20.6289 29.9434 20.9644 29.5987 21.2475C29.2571 21.5276 28.8662 21.7446 28.4261 21.8984C27.986 22.0523 27.5059 22.1293 26.9858 22.1293C26.1671 22.1293 25.4377 21.9354 24.7976 21.5476C24.1574 21.1567 23.6527 20.5981 23.2834 19.8718C22.9171 19.1455 22.734 18.2791 22.734 17.2727C22.734 16.2633 22.9187 15.3969 23.288 14.6737C23.6573 13.9473 24.1621 13.3903 24.8022 13.0025C25.4424 12.6116 26.1702 12.4162 26.9858 12.4162C27.4875 12.4162 27.9553 12.4885 28.3892 12.6332C28.8262 12.7747 29.2186 12.984 29.5664 13.261C29.9142 13.5349 30.2019 13.8704 30.4297 14.2674C30.6574 14.6613 30.8113 15.1122 30.8913 15.62ZM35.4743 22.1431C34.8096 22.1431 34.2294 21.9908 33.7339 21.6861C33.2384 21.3814 32.8537 20.9551 32.5798 20.4073C32.3059 19.8595 32.1689 19.2193 32.1689 18.4869C32.1689 17.7513 32.3059 17.1081 32.5798 16.5572C32.8537 16.0063 33.2384 15.5785 33.7339 15.2738C34.2294 14.9691 34.8096 14.8168 35.4743 14.8168C36.1391 14.8168 36.7193 14.9691 37.2148 15.2738C37.7103 15.5785 38.095 16.0063 38.3689 16.5572C38.6428 17.1081 38.7797 17.7513 38.7797 18.4869C38.7797 19.2193 38.6428 19.8595 38.3689 20.4073C38.095 20.9551 37.7103 21.3814 37.2148 21.6861C36.7193 21.9908 36.1391 22.1431 35.4743 22.1431ZM35.479 20.9844C35.9098 20.9844 36.2668 20.8705 36.55 20.6428C36.8331 20.415 37.0424 20.1119 37.1778 19.7333C37.3163 19.3548 37.3856 18.9377 37.3856 18.4822C37.3856 18.0298 37.3163 17.6143 37.1778 17.2358C37.0424 16.8542 36.8331 16.5479 36.55 16.3171C36.2668 16.0863 35.9098 15.9709 35.479 15.9709C35.045 15.9709 34.6849 16.0863 34.3987 16.3171C34.1156 16.5479 33.9047 16.8542 33.7662 17.2358C33.6308 17.6143 33.5631 18.0298 33.5631 18.4822C33.5631 18.9377 33.6308 19.3548 33.7662 19.7333C33.9047 20.1119 34.1156 20.415 34.3987 20.6428C34.6849 20.8705 35.045 20.9844 35.479 20.9844ZM40.3205 22V14.9091H41.6454V16.0632H41.7331C41.8809 15.6723 42.1225 15.3677 42.4579 15.1491C42.7934 14.9276 43.195 14.8168 43.6628 14.8168C44.1368 14.8168 44.5338 14.9276 44.8539 15.1491C45.177 15.3707 45.4155 15.6754 45.5694 16.0632H45.6433C45.8126 15.6847 46.0819 15.383 46.4512 15.1584C46.8205 14.9306 47.2606 14.8168 47.7715 14.8168C48.4147 14.8168 48.9395 15.0183 49.3457 15.4215C49.755 15.8247 49.9597 16.4325 49.9597 17.245V22H48.5794V17.3743C48.5794 16.8942 48.4486 16.5464 48.187 16.331C47.9254 16.1155 47.613 16.0078 47.2498 16.0078C46.8005 16.0078 46.4512 16.1463 46.2019 16.4233C45.9526 16.6972 45.8279 17.0496 45.8279 17.4805V22H44.4522V17.2866C44.4522 16.9019 44.3322 16.5926 44.0922 16.3587C43.8521 16.1248 43.5397 16.0078 43.155 16.0078C42.8934 16.0078 42.6518 16.0771 42.4302 16.2156C42.2117 16.351 42.0347 16.5402 41.8993 16.7834C41.767 17.0265 41.7008 17.3081 41.7008 17.6282V22H40.3205ZM51.8097 22V14.9091H53.1347V16.0632H53.2224C53.3701 15.6723 53.6117 15.3677 53.9472 15.1491C54.2826 14.9276 54.6843 14.8168 55.1521 14.8168C55.626 14.8168 56.0231 14.9276 56.3431 15.1491C56.6663 15.3707 56.9048 15.6754 57.0587 16.0632H57.1325C57.3018 15.6847 57.5711 15.383 57.9404 15.1584C58.3097 14.9306 58.7499 14.8168 59.2607 14.8168C59.904 14.8168 60.4287 15.0183 60.835 15.4215C61.2443 15.8247 61.449 16.4325 61.449 17.245V22H60.0686V17.3743C60.0686 16.8942 59.9378 16.5464 59.6762 16.331C59.4146 16.1155 59.1022 16.0078 58.7391 16.0078C58.2897 16.0078 57.9404 16.1463 57.6911 16.4233C57.4419 16.6972 57.3172 17.0496 57.3172 17.4805V22H55.9415V17.2866C55.9415 16.9019 55.8215 16.5926 55.5814 16.3587C55.3414 16.1248 55.029 16.0078 54.6443 16.0078C54.3827 16.0078 54.1411 16.0771 53.9195 16.2156C53.701 16.351 53.524 16.5402 53.3886 16.7834C53.2562 17.0265 53.1901 17.3081 53.1901 17.6282V22H51.8097ZM66.3551 22.1431C65.6565 22.1431 65.0548 21.9938 64.5501 21.6953C64.0484 21.3937 63.6606 20.9705 63.3867 20.4258C63.1159 19.878 62.9805 19.2363 62.9805 18.5007C62.9805 17.7744 63.1159 17.1342 63.3867 16.5803C63.6606 16.0263 64.0423 15.5939 64.5316 15.283C65.024 14.9722 65.5996 14.8168 66.2582 14.8168C66.6583 14.8168 67.046 14.8829 67.4215 15.0153C67.797 15.1476 68.134 15.3554 68.4325 15.6385C68.7311 15.9216 68.9665 16.2894 69.1388 16.7418C69.3112 17.1912 69.3974 17.7375 69.3974 18.3807V18.87H63.7607V17.8359H68.0447C68.0447 17.4728 67.9709 17.1512 67.8232 16.8711C67.6754 16.5879 67.4677 16.3648 67.1999 16.2017C66.9353 16.0386 66.6244 15.957 66.2674 15.957C65.8796 15.957 65.5411 16.0524 65.2518 16.2433C64.9656 16.431 64.744 16.6772 64.587 16.9819C64.4331 17.2835 64.3562 17.6113 64.3562 17.9652V18.7731C64.3562 19.247 64.4393 19.6502 64.6055 19.9826C64.7747 20.315 65.0102 20.5689 65.3118 20.7443C65.6134 20.9167 65.9658 21.0028 66.369 21.0028C66.6306 21.0028 66.8691 20.9659 67.0845 20.892C67.3 20.8151 67.4862 20.7012 67.6431 20.5504C67.8001 20.3996 67.9201 20.2134 68.0032 19.9918L69.3097 20.2273C69.205 20.612 69.0173 20.949 68.7464 21.2383C68.4787 21.5245 68.1417 21.7476 67.7354 21.9077C67.3323 22.0646 66.8722 22.1431 66.3551 22.1431ZM72.3092 17.7898V22H70.9289V14.9091H72.2538V16.0632H72.3415C72.5046 15.6877 72.7601 15.3861 73.1079 15.1584C73.4587 14.9306 73.9004 14.8168 74.4328 14.8168C74.916 14.8168 75.3392 14.9183 75.7023 15.1214C76.0655 15.3215 76.3471 15.62 76.5471 16.017C76.7472 16.4141 76.8472 16.9049 76.8472 17.4897V22H75.4669V17.6559C75.4669 17.1419 75.333 16.7403 75.0653 16.451C74.7975 16.1586 74.4297 16.0124 73.9619 16.0124C73.6418 16.0124 73.3572 16.0817 73.1079 16.2202C72.8617 16.3587 72.6662 16.5618 72.5216 16.8295C72.38 17.0942 72.3092 17.4143 72.3092 17.7898ZM82.0084 14.9091V16.017H78.1352V14.9091H82.0084ZM79.1739 13.2102H80.5542V19.918C80.5542 20.1857 80.5943 20.3873 80.6743 20.5227C80.7543 20.6551 80.8574 20.7459 80.9836 20.7951C81.1128 20.8413 81.2529 20.8643 81.4037 20.8643C81.5145 20.8643 81.6114 20.8567 81.6945 20.8413C81.7776 20.8259 81.8422 20.8136 81.8884 20.8043L82.1377 21.9446C82.0577 21.9754 81.9438 22.0062 81.7961 22.0369C81.6483 22.0708 81.4637 22.0893 81.2421 22.0923C80.8789 22.0985 80.5404 22.0339 80.2265 21.8984C79.9126 21.763 79.6586 21.5537 79.4648 21.2706C79.2709 20.9875 79.1739 20.632 79.1739 20.2042V13.2102Z" fill="#0F172A"/>
</g>
<defs>
<filter id="filter0_dd_1_2312" x="0" y="0" width="297" height="42" filterUnits="userSpaceOnUse" color-interpolation-filters="sRGB">
<feFlood flood-opacity="0" result="BackgroundImageFix"/>
<feColorMatrix in="SourceAlpha" type="matrix" values="0 0 0 0 0 0 0 0 0 0 0 0 0 0 0 0 0 0 127 0" result="hardAlpha"/>
<feMorphology radius="10" operator="erode" in="SourceAlpha" result="effect1_dropShadow_1_2312"/>
<feOffset dy="4"/>
<feGaussianBlur stdDeviation="6"/>
<feComposite in2="hardAlpha" operator="out"/>
<feColorMatrix type="matrix" values="0 0 0 0 0.0588235 0 0 0 0 0.0901961 0 0 0 0 0.164706 0 0 0 0.5 0"/>
<feBlend mode="normal" in2="BackgroundImageFix" result="effect1_dropShadow_1_2312"/>
<feColorMatrix in="SourceAlpha" type="matrix" values="0 0 0 0 0 0 0 0 0 0 0 0 0 0 0 0 0 0 127 0" result="hardAlpha"/>
<feMorphology radius="5" operator="erode" in="SourceAlpha" result="effect2_dropShadow_1_2312"/>
<feOffset dx="1"/>
<feGaussianBlur stdDeviation="2.5"/>
<feComposite in2="hardAlpha" operator="out"/>
<feColorMatrix type="matrix" values="0 0 0 0 0.0588235 0 0 0 0 0.0901961 0 0 0 0 0.164706 0 0 0 0.07 0"/>
<feBlend mode="normal" in2="effect1_dropShadow_1_2312" result="effect2_dropShadow_1_2312"/>
<feBlend mode="normal" in="SourceGraphic" in2="effect2_dropShadow_1_2312" result="shape"/>
</filter>
</defs>
</svg>
