<svg width="32" height="32" viewBox="0 0 32 32" fill="none" xmlns="http://www.w3.org/2000/svg">
<path d="M19.5 16C22.0784 16 24.1667 13.9116 24.1667 11.3333C24.1667 8.75496 22.0784 6.66663 19.5 6.66663C16.9217 6.66663 14.8334 8.75496 14.8334 11.3333C14.8334 13.9116 16.9217 16 19.5 16ZM9.00002 13.6666V11.3333C9.00002 10.6916 8.47502 10.1666 7.83335 10.1666C7.19169 10.1666 6.66669 10.6916 6.66669 11.3333V13.6666H4.33335C3.69169 13.6666 3.16669 14.1916 3.16669 14.8333C3.16669 15.475 3.69169 16 4.33335 16H6.66669V18.3333C6.66669 18.975 7.19169 19.5 7.83335 19.5C8.47502 19.5 9.00002 18.975 9.00002 18.3333V16H11.3334C11.975 16 12.5 15.475 12.5 14.8333C12.5 14.1916 11.975 13.6666 11.3334 13.6666H9.00002ZM19.5 18.3333C16.385 18.3333 10.1667 19.8966 10.1667 23V24.1666C10.1667 24.8083 10.6917 25.3333 11.3334 25.3333H27.6667C28.3084 25.3333 28.8334 24.8083 28.8334 24.1666V23C28.8334 19.8966 22.615 18.3333 19.5 18.3333Z" fill="#182020"/>
</svg>
