<svg width="32" height="32" viewBox="0 0 32 32" fill="none" xmlns="http://www.w3.org/2000/svg">
<path d="M19.5 16C22.0783 16 24.1666 13.9116 24.1666 11.3333C24.1666 8.75496 22.0783 6.66663 19.5 6.66663C16.9216 6.66663 14.8333 8.75496 14.8333 11.3333C14.8333 13.9116 16.9216 16 19.5 16ZM8.99996 13.6666V11.3333C8.99996 10.6916 8.47496 10.1666 7.83329 10.1666C7.19163 10.1666 6.66663 10.6916 6.66663 11.3333V13.6666H4.33329C3.69163 13.6666 3.16663 14.1916 3.16663 14.8333C3.16663 15.475 3.69163 16 4.33329 16H6.66663V18.3333C6.66663 18.975 7.19163 19.5 7.83329 19.5C8.47496 19.5 8.99996 18.975 8.99996 18.3333V16H11.3333C11.975 16 12.5 15.475 12.5 14.8333C12.5 14.1916 11.975 13.6666 11.3333 13.6666H8.99996ZM19.5 18.3333C16.385 18.3333 10.1666 19.8966 10.1666 23V24.1666C10.1666 24.8083 10.6916 25.3333 11.3333 25.3333H27.6666C28.3083 25.3333 28.8333 24.8083 28.8333 24.1666V23C28.8333 19.8966 22.615 18.3333 19.5 18.3333Z" fill="#182020"/>
</svg>
