<svg width="32" height="32" viewBox="0 0 32 32" fill="none" xmlns="http://www.w3.org/2000/svg">
<path d="M24.75 16C24.75 15.7317 24.7383 15.475 24.715 15.2067L26.885 13.5617C27.3516 13.2117 27.48 12.5584 27.1883 12.045L25.0066 8.27671C24.715 7.76337 24.085 7.55337 23.5483 7.78671L21.04 8.84837C20.6083 8.54504 20.1533 8.27671 19.675 8.05504L19.3366 5.36004C19.2666 4.77671 18.765 4.33337 18.1816 4.33337H13.83C13.235 4.33337 12.7333 4.77671 12.6633 5.36004L12.325 8.05504C11.8466 8.27671 11.3916 8.54504 10.96 8.84837L8.45164 7.78671C7.91498 7.55337 7.28498 7.76337 6.99331 8.27671L4.81164 12.0567C4.51998 12.57 4.64831 13.2117 5.11498 13.5734L7.28498 15.2184C7.26164 15.475 7.24997 15.7317 7.24997 16C7.24997 16.2684 7.26164 16.525 7.28498 16.7934L5.11498 18.4384C4.64831 18.7884 4.51998 19.4417 4.81164 19.955L6.99331 23.7234C7.28498 24.2367 7.91498 24.4467 8.45164 24.2134L10.96 23.1517C11.3916 23.455 11.8466 23.7234 12.325 23.945L12.6633 26.64C12.7333 27.2234 13.235 27.6667 13.8183 27.6667H18.17C18.7533 27.6667 19.255 27.2234 19.325 26.64L19.6633 23.945C20.1416 23.7234 20.5966 23.455 21.0283 23.1517L23.5366 24.2134C24.0733 24.4467 24.7033 24.2367 24.995 23.7234L27.1766 19.955C27.4683 19.4417 27.34 18.8 26.8733 18.4384L24.7033 16.7934C24.7383 16.525 24.75 16.2684 24.75 16ZM16.0466 20.0834C13.795 20.0834 11.9633 18.2517 11.9633 16C11.9633 13.7484 13.795 11.9167 16.0466 11.9167C18.2983 11.9167 20.13 13.7484 20.13 16C20.13 18.2517 18.2983 20.0834 16.0466 20.0834Z" fill="#182020"/>
</svg>
