<svg width="32" height="32" viewBox="0 0 32 32" fill="none" xmlns="http://www.w3.org/2000/svg">
<path d="M6.66667 23H25.3333C25.975 23 26.5 22.475 26.5 21.8333C26.5 21.1917 25.975 20.6667 25.3333 20.6667H6.66667C6.025 20.6667 5.5 21.1917 5.5 21.8333C5.5 22.475 6.025 23 6.66667 23ZM6.66667 17.1667H25.3333C25.975 17.1667 26.5 16.6417 26.5 16C26.5 15.3583 25.975 14.8333 25.3333 14.8333H6.66667C6.025 14.8333 5.5 15.3583 5.5 16C5.5 16.6417 6.025 17.1667 6.66667 17.1667ZM5.5 10.1667C5.5 10.8083 6.025 11.3333 6.66667 11.3333H25.3333C25.975 11.3333 26.5 10.8083 26.5 10.1667C26.5 9.525 25.975 9 25.3333 9H6.66667C6.025 9 5.5 9.525 5.5 10.1667Z" fill="#182020"/>
</svg>
