<svg width="32" height="32" viewBox="0 0 32 32" fill="none" xmlns="http://www.w3.org/2000/svg">
<path fill-rule="evenodd" clip-rule="evenodd" d="M7.25 13.0834C7.25 8.25337 11.17 4.33337 16 4.33337C20.83 4.33337 24.75 8.25337 24.75 13.0834C24.75 17.54 21.6467 19.92 20.3517 20.6667H11.6483C10.3533 19.92 7.25 17.54 7.25 13.0834ZM12.5 24.1667H19.5C20.1417 24.1667 20.6667 23.6417 20.6667 23C20.6667 22.3584 20.1417 21.8334 19.5 21.8334H12.5C11.8583 21.8334 11.3333 22.3584 11.3333 23C11.3333 23.6417 11.8583 24.1667 12.5 24.1667ZM16 27.6667C17.2833 27.6667 18.3333 26.6167 18.3333 25.3334H13.6667C13.6667 26.6167 14.7167 27.6667 16 27.6667Z" fill="#182020"/>
</svg>
