<svg width="32" height="32" viewBox="0 0 32 32" fill="none" xmlns="http://www.w3.org/2000/svg">
<path d="M16.77 5.00994C16.3267 4.62494 15.6617 4.62494 15.2183 5.00994C9.52499 10.0266 6.66666 14.3899 6.66666 18.0999C6.66666 23.9099 11.1 27.6666 16 27.6666C20.9 27.6666 25.3333 23.9099 25.3333 18.0999C25.3333 14.3899 22.475 10.0266 16.77 5.00994ZM11.135 18.3333C11.5667 18.3333 11.9167 18.6366 11.9983 19.0566C12.4767 21.6466 14.6583 22.5333 16.245 22.4049C16.7467 22.3816 17.1667 22.7783 17.1667 23.2799C17.1667 23.7466 16.7933 24.1316 16.3267 24.1549C13.8417 24.3066 10.9367 22.8833 10.2717 19.3483C10.1783 18.8233 10.5983 18.3333 11.135 18.3333Z" fill="#182020"/>
</svg>
