<svg width="32" height="32" viewBox="0 0 32 32" fill="none" xmlns="http://www.w3.org/2000/svg">
<path d="M9.00001 24.1667C9.00001 25.45 10.05 26.5 11.3333 26.5H20.6667C21.95 26.5 23 25.45 23 24.1667V12.5C23 11.2167 21.95 10.1667 20.6667 10.1667H11.3333C10.05 10.1667 9.00001 11.2167 9.00001 12.5V24.1667ZM23 6.66667H20.0833L19.255 5.83833C19.045 5.62833 18.7417 5.5 18.4383 5.5H13.5617C13.2583 5.5 12.955 5.62833 12.745 5.83833L11.9167 6.66667H9.00001C8.35834 6.66667 7.83334 7.19167 7.83334 7.83333C7.83334 8.475 8.35834 9 9.00001 9H23C23.6417 9 24.1667 8.475 24.1667 7.83333C24.1667 7.19167 23.6417 6.66667 23 6.66667Z" fill="#182020"/>
</svg>
