<svg width="32" height="32" viewBox="0 0 32 32" fill="none" xmlns="http://www.w3.org/2000/svg">
<path d="M23 24.1667H9C8.35833 24.1667 7.83333 23.6417 7.83333 23V9C7.83333 8.35833 8.35833 7.83333 9 7.83333H14.8333C15.475 7.83333 16 7.30833 16 6.66667C16 6.025 15.475 5.5 14.8333 5.5H7.83333C6.53833 5.5 5.5 6.55 5.5 7.83333V24.1667C5.5 25.45 6.55 26.5 7.83333 26.5H24.1667C25.45 26.5 26.5 25.45 26.5 24.1667V17.1667C26.5 16.525 25.975 16 25.3333 16C24.6917 16 24.1667 16.525 24.1667 17.1667V23C24.1667 23.6417 23.6417 24.1667 23 24.1667ZM18.3333 6.66667C18.3333 7.30833 18.8583 7.83333 19.5 7.83333H22.5217L11.87 18.485C11.415 18.94 11.415 19.675 11.87 20.13C12.325 20.585 13.06 20.585 13.515 20.13L24.1667 9.47833V12.5C24.1667 13.1417 24.6917 13.6667 25.3333 13.6667C25.975 13.6667 26.5 13.1417 26.5 12.5V6.66667C26.5 6.025 25.975 5.5 25.3333 5.5H19.5C18.8583 5.5 18.3333 6.025 18.3333 6.66667Z" fill="#182020"/>
</svg>
