<svg width="32" height="32" viewBox="0 0 32 32" fill="none" xmlns="http://www.w3.org/2000/svg">
<path d="M16.4084 20.2583L19.6634 17.0033C20.025 16.6417 19.7684 16.0117 19.255 16.0117H17.1667V6.66667C17.1667 6.025 16.6417 5.5 16 5.5C15.3584 5.5 14.8334 6.025 14.8334 6.66667V16H12.745C12.22 16 11.9634 16.63 12.3367 16.9917L15.5917 20.2467C15.8134 20.48 16.1867 20.48 16.4084 20.2583ZM26.5 5.5H20.655C20.025 5.5 19.5 6.025 19.5 6.655C19.5 7.29667 20.025 7.81 20.655 7.81H25.3334C25.975 7.81 26.5 8.335 26.5 8.97667V23.0117C26.5 23.6533 25.975 24.1783 25.3334 24.1783H6.66669C6.02502 24.1783 5.50002 23.6533 5.50002 23.0117V8.98833C5.50002 8.34667 6.02502 7.82167 6.66669 7.82167H11.345C11.975 7.82167 12.5 7.29667 12.5 6.66667C12.5 6.025 11.975 5.5 11.345 5.5H5.50002C4.21669 5.5 3.16669 6.55 3.16669 7.83333V24.1667C3.16669 25.45 4.21669 26.5 5.50002 26.5H26.5C27.7834 26.5 28.8334 25.45 28.8334 24.1667V7.83333C28.8334 6.55 27.7834 5.5 26.5 5.5Z" fill="#182020"/>
</svg>
