<svg width="32" height="32" viewBox="0 0 32 32" fill="none" xmlns="http://www.w3.org/2000/svg">
<path d="M6.66667 17.1666C7.30833 17.1666 7.83333 16.6416 7.83333 16C7.83333 15.3583 7.30833 14.8333 6.66667 14.8333C6.025 14.8333 5.5 15.3583 5.5 16C5.5 16.6416 6.025 17.1666 6.66667 17.1666ZM6.66667 21.8333C7.30833 21.8333 7.83333 21.3083 7.83333 20.6666C7.83333 20.025 7.30833 19.5 6.66667 19.5C6.025 19.5 5.5 20.025 5.5 20.6666C5.5 21.3083 6.025 21.8333 6.66667 21.8333ZM6.66667 12.5C7.30833 12.5 7.83333 11.975 7.83333 11.3333C7.83333 10.6916 7.30833 10.1666 6.66667 10.1666C6.025 10.1666 5.5 10.6916 5.5 11.3333C5.5 11.975 6.025 12.5 6.66667 12.5ZM11.3333 17.1666H25.3333C25.975 17.1666 26.5 16.6416 26.5 16C26.5 15.3583 25.975 14.8333 25.3333 14.8333H11.3333C10.6917 14.8333 10.1667 15.3583 10.1667 16C10.1667 16.6416 10.6917 17.1666 11.3333 17.1666ZM11.3333 21.8333H25.3333C25.975 21.8333 26.5 21.3083 26.5 20.6666C26.5 20.025 25.975 19.5 25.3333 19.5H11.3333C10.6917 19.5 10.1667 20.025 10.1667 20.6666C10.1667 21.3083 10.6917 21.8333 11.3333 21.8333ZM10.1667 11.3333C10.1667 11.975 10.6917 12.5 11.3333 12.5H25.3333C25.975 12.5 26.5 11.975 26.5 11.3333C26.5 10.6916 25.975 10.1666 25.3333 10.1666H11.3333C10.6917 10.1666 10.1667 10.6916 10.1667 11.3333ZM6.66667 17.1666C7.30833 17.1666 7.83333 16.6416 7.83333 16C7.83333 15.3583 7.30833 14.8333 6.66667 14.8333C6.025 14.8333 5.5 15.3583 5.5 16C5.5 16.6416 6.025 17.1666 6.66667 17.1666ZM6.66667 21.8333C7.30833 21.8333 7.83333 21.3083 7.83333 20.6666C7.83333 20.025 7.30833 19.5 6.66667 19.5C6.025 19.5 5.5 20.025 5.5 20.6666C5.5 21.3083 6.025 21.8333 6.66667 21.8333ZM6.66667 12.5C7.30833 12.5 7.83333 11.975 7.83333 11.3333C7.83333 10.6916 7.30833 10.1666 6.66667 10.1666C6.025 10.1666 5.5 10.6916 5.5 11.3333C5.5 11.975 6.025 12.5 6.66667 12.5ZM11.3333 17.1666H25.3333C25.975 17.1666 26.5 16.6416 26.5 16C26.5 15.3583 25.975 14.8333 25.3333 14.8333H11.3333C10.6917 14.8333 10.1667 15.3583 10.1667 16C10.1667 16.6416 10.6917 17.1666 11.3333 17.1666ZM11.3333 21.8333H25.3333C25.975 21.8333 26.5 21.3083 26.5 20.6666C26.5 20.025 25.975 19.5 25.3333 19.5H11.3333C10.6917 19.5 10.1667 20.025 10.1667 20.6666C10.1667 21.3083 10.6917 21.8333 11.3333 21.8333ZM10.1667 11.3333C10.1667 11.975 10.6917 12.5 11.3333 12.5H25.3333C25.975 12.5 26.5 11.975 26.5 11.3333C26.5 10.6916 25.975 10.1666 25.3333 10.1666H11.3333C10.6917 10.1666 10.1667 10.6916 10.1667 11.3333Z" fill="#182020"/>
</svg>
