<svg width="32" height="32" viewBox="0 0 32 32" fill="none" xmlns="http://www.w3.org/2000/svg">
<path d="M19.0216 5.02171C18.5783 4.57837 17.9833 4.33337 17.365 4.33337H8.99996C7.71663 4.33337 6.66663 5.38337 6.66663 6.66671V25.3334C6.66663 26.6167 7.70496 27.6667 8.98829 27.6667H23C24.2833 27.6667 25.3333 26.6167 25.3333 25.3334V12.3017C25.3333 11.6834 25.0883 11.0884 24.645 10.6567L19.0216 5.02171ZM19.5 23H12.5C11.8583 23 11.3333 22.475 11.3333 21.8334C11.3333 21.1917 11.8583 20.6667 12.5 20.6667H19.5C20.1416 20.6667 20.6666 21.1917 20.6666 21.8334C20.6666 22.475 20.1416 23 19.5 23ZM19.5 18.3334H12.5C11.8583 18.3334 11.3333 17.8084 11.3333 17.1667C11.3333 16.525 11.8583 16 12.5 16H19.5C20.1416 16 20.6666 16.525 20.6666 17.1667C20.6666 17.8084 20.1416 18.3334 19.5 18.3334ZM17.1666 11.3334V6.08337L23.5833 12.5H18.3333C17.6916 12.5 17.1666 11.975 17.1666 11.3334Z" fill="#182020"/>
</svg>
