<svg width="32" height="32" viewBox="0 0 32 32" fill="none" xmlns="http://www.w3.org/2000/svg">
<path d="M26.1617 8.56832L23.4317 5.83832C22.9767 5.38332 22.2417 5.38332 21.7867 5.83832L18.1467 9.47832L16.7117 8.06665C16.2567 7.61165 15.5217 7.62332 15.0667 8.06665C14.6117 8.52165 14.6117 9.25665 15.0667 9.71165L15.9067 10.5517L5.675 20.7833C5.55833 20.9 5.5 21.04 5.5 21.2033V25.9167C5.5 26.2433 5.75667 26.5 6.08333 26.5H10.7967C10.9483 26.5 11.1 26.4417 11.205 26.325L21.4367 16.0933L22.2767 16.9333C22.7317 17.3883 23.4667 17.3883 23.9217 16.9333C24.3767 16.4783 24.3767 15.7433 23.9217 15.2883L22.4983 13.865L26.1383 10.225C26.6167 9.75832 26.6167 9.02332 26.1617 8.56832ZM10.0733 24.1667L7.83333 21.9267L17.2367 12.5233L19.4767 14.7633L10.0733 24.1667Z" fill="#182020"/>
</svg>
