<svg width="32" height="32" viewBox="0 0 32 32" fill="none" xmlns="http://www.w3.org/2000/svg">
<path d="M15.7667 14.7167C13.1184 14.0283 12.2667 13.3167 12.2667 12.2083C12.2667 10.9367 13.445 10.05 15.4167 10.05C17.0734 10.05 17.9017 10.68 18.205 11.6833C18.345 12.15 18.73 12.5 19.22 12.5H19.57C20.34 12.5 20.8884 11.7417 20.62 11.0183C20.13 9.64167 18.9867 8.49833 17.1667 8.055V7.25C17.1667 6.28167 16.385 5.5 15.4167 5.5C14.4484 5.5 13.6667 6.28167 13.6667 7.25V8.02C11.4034 8.51 9.58337 9.98 9.58337 12.2317C9.58337 14.9267 11.8117 16.2683 15.0667 17.05C17.9834 17.75 18.5667 18.7767 18.5667 19.8617C18.5667 20.6667 17.995 21.95 15.4167 21.95C13.4917 21.95 12.5 21.2617 12.115 20.2817C11.94 19.8267 11.5434 19.5 11.065 19.5H10.7384C9.95671 19.5 9.40837 20.2933 9.70004 21.0167C10.365 22.6383 11.9167 23.595 13.6667 23.9683V24.75C13.6667 25.7183 14.4484 26.5 15.4167 26.5C16.385 26.5 17.1667 25.7183 17.1667 24.75V23.9917C19.4417 23.56 21.25 22.2417 21.25 19.85C21.25 16.5367 18.415 15.405 15.7667 14.7167Z" fill="#182020"/>
</svg>
