<svg width="32" height="32" viewBox="0 0 32 32" fill="none" xmlns="http://www.w3.org/2000/svg">
<path d="M12.7216 9.4083C10.3416 12.08 8.70831 15.9183 8.55664 16.28L5.91998 15.1483C5.16164 14.8216 4.97498 13.83 5.55831 13.2466L9.06998 9.73497C9.61831 9.18663 10.4116 8.94163 11.1816 9.0933L12.7216 9.4083ZM14.46 21.2616C14.81 21.6116 15.3233 21.705 15.7666 21.495C17.12 20.865 20.025 19.3833 21.9033 17.505C27.2583 12.15 27.305 7.78663 26.99 5.91997C26.9083 5.4533 26.535 5.07997 26.0683 4.9983C24.2016 4.6833 19.8383 4.72997 14.4833 10.085C12.605 11.9633 11.135 14.8683 10.4933 16.2216C10.2833 16.665 10.3883 17.19 10.7266 17.5283L14.46 21.2616ZM22.5916 19.2783C19.92 21.6583 16.0816 23.2916 15.72 23.4433L16.8516 26.08C17.1783 26.8383 18.17 27.025 18.7533 26.4416L22.265 22.93C22.8133 22.3816 23.0583 21.5883 22.9066 20.8183L22.5916 19.2783ZM12.43 22.3116C12.6633 23.5483 12.255 24.6916 11.4733 25.4733C10.575 26.3716 7.78664 27.0366 5.97831 27.3866C5.17331 27.5383 4.46165 26.8266 4.61331 26.0216C4.96331 24.2133 5.61665 21.425 6.52664 20.5266C7.30831 19.745 8.45164 19.3366 9.68831 19.57C11.0533 19.8266 12.1733 20.9466 12.43 22.3116ZM17.1666 12.5C17.1666 11.2166 18.2166 10.1666 19.5 10.1666C20.7833 10.1666 21.8333 11.2166 21.8333 12.5C21.8333 13.7833 20.7833 14.8333 19.5 14.8333C18.2166 14.8333 17.1666 13.7833 17.1666 12.5Z" fill="#182020"/>
</svg>
