<svg width="32" height="32" viewBox="0 0 32 32" fill="none" xmlns="http://www.w3.org/2000/svg">
<path d="M23.7583 11.7416L20.5033 14.9966C20.13 15.37 20.3867 16 20.9117 16H23C23 19.8616 19.8617 23 16 23C15.0783 23 14.18 22.825 13.375 22.4866C12.955 22.3116 12.4767 22.44 12.1617 22.755C11.5667 23.35 11.7767 24.3533 12.5583 24.6683C13.62 25.1 14.7867 25.3333 16 25.3333C21.1567 25.3333 25.3333 21.1566 25.3333 16H27.4217C27.9467 16 28.2033 15.37 27.83 15.0083L24.575 11.7533C24.3533 11.52 23.98 11.52 23.7583 11.7416ZM9.00002 16C9.00002 12.1383 12.1383 8.99996 16 8.99996C16.9217 8.99996 17.82 9.17496 18.625 9.51329C19.045 9.68829 19.5233 9.55996 19.8383 9.24496C20.4333 8.64996 20.2233 7.64663 19.4417 7.33163C18.38 6.89996 17.2133 6.66663 16 6.66663C10.8433 6.66663 6.66668 10.8433 6.66668 16H4.57835C4.05335 16 3.79668 16.63 4.17002 16.9916L7.42502 20.2466C7.65835 20.48 8.02002 20.48 8.25335 20.2466L11.5083 16.9916C11.87 16.63 11.6133 16 11.0883 16H9.00002Z" fill="#182020"/>
</svg>
