<svg width="32" height="32" viewBox="0 0 32 32" fill="none" xmlns="http://www.w3.org/2000/svg">
<path d="M23.7583 11.7416L20.5033 14.9966C20.13 15.37 20.3866 16 20.9116 16H23C23 19.8616 19.8616 23 16 23C15.0783 23 14.18 22.825 13.375 22.4866C12.955 22.3116 12.4766 22.44 12.1616 22.755C11.5666 23.35 11.7766 24.3533 12.5583 24.6683C13.62 25.1 14.7866 25.3333 16 25.3333C21.1566 25.3333 25.3333 21.1566 25.3333 16H27.4216C27.9466 16 28.2033 15.37 27.83 15.0083L24.575 11.7533C24.3533 11.52 23.98 11.52 23.7583 11.7416ZM8.99995 16C8.99995 12.1383 12.1383 8.99996 16 8.99996C16.9216 8.99996 17.82 9.17496 18.625 9.51329C19.045 9.68829 19.5233 9.55996 19.8383 9.24496C20.4333 8.64996 20.2233 7.64663 19.4416 7.33163C18.38 6.89996 17.2133 6.66663 16 6.66663C10.8433 6.66663 6.66662 10.8433 6.66662 16H4.57829C4.05329 16 3.79662 16.63 4.16995 16.9916L7.42495 20.2466C7.65829 20.48 8.01995 20.48 8.25329 20.2466L11.5083 16.9916C11.87 16.63 11.6133 16 11.0883 16H8.99995Z" fill="#182020"/>
</svg>
