<svg width="24" height="24" viewBox="0 0 24 24" fill="none" xmlns="http://www.w3.org/2000/svg">
<path d="M10.4999 5C10.4999 5.64117 10.9022 6.18838 11.4681 6.403C11.8174 6.48797 12.1822 6.48801 12.5315 6.4031C13.0975 6.18855 13.4999 5.64127 13.4999 5C13.4999 4.17157 12.8284 3.5 11.9999 3.5C11.1715 3.5 10.4999 4.17157 10.4999 5ZM9.02621 5.39876C9.00888 5.2683 8.99994 5.1352 8.99994 5C8.99994 3.34315 10.3431 2 11.9999 2C13.6568 2 14.9999 3.34315 14.9999 5C14.9999 5.13522 14.991 5.26835 14.9737 5.39883L17.8501 4.17784C18.9933 3.6926 20.318 4.2222 20.8116 5.36177C21.3069 6.50526 20.7776 7.82908 19.6305 8.31599L16.0025 9.85602V13.5732L17.8768 19.0167C18.2814 20.1916 17.6569 21.4721 16.4819 21.8766C15.307 22.2812 14.0265 21.6567 13.622 20.4818L12.0001 15.7715L10.3783 20.4815C9.97374 21.6565 8.6933 22.281 7.51836 21.8764C6.34342 21.4719 5.71891 20.1914 6.12347 19.0165L8.00245 13.5595V9.85809L4.36949 8.31599C3.2224 7.82908 2.69317 6.50526 3.18845 5.36177C3.68202 4.2222 5.00675 3.6926 6.14989 4.17784L9.02621 5.39876ZM11.022 7.83699C10.8569 7.79238 10.6941 7.73627 10.5348 7.66865L5.56379 5.55859C5.17929 5.39538 4.7309 5.57464 4.56488 5.95794C4.40056 6.33732 4.57502 6.77369 4.95558 6.93523L8.74087 8.54199C9.2026 8.73798 9.50245 9.19101 9.50245 9.69262V13.6014C9.50245 13.7399 9.47944 13.8774 9.43435 14.0083L7.54175 19.5048C7.4069 19.8965 7.61507 20.3233 8.00671 20.4581C8.39836 20.593 8.82517 20.3848 8.96003 19.9932L11.0683 13.8702C11.3739 12.9821 12.6275 12.9856 12.9317 13.8699L15.0403 19.9934C15.1751 20.3851 15.6019 20.5932 15.9936 20.4584C16.3852 20.3235 16.5934 19.8967 16.4585 19.5051L14.5706 14.022C14.5255 13.891 14.5025 13.7535 14.5025 13.615V9.69055C14.5025 9.18894 14.8023 8.73591 15.264 8.53992L19.0444 6.93523C19.425 6.77369 19.5995 6.33732 19.4351 5.95794C19.2691 5.57464 18.8207 5.39538 18.4362 5.55859L13.4653 7.66865C13.3057 7.73636 13.1427 7.79254 12.9773 7.83718C12.671 7.9427 12.3421 8 11.9999 8C11.6575 8 11.3285 7.94264 11.022 7.83699Z" fill="#212121"/>
</svg>
