<svg width="16" height="16" viewBox="0 0 16 16" fill="none" xmlns="http://www.w3.org/2000/svg">
<path d="M6.75 3.25C6.75 2.55964 7.30964 2 8 2C8.69035 2 9.25 2.55964 9.25 3.25C9.25 3.94036 8.69035 4.5 8 4.5C7.30964 4.5 6.75 3.94036 6.75 3.25ZM8 1C6.75736 1 5.75 2.00736 5.75 3.25C5.75 3.42769 5.7706 3.60057 5.80953 3.76638L4.19808 3.11531C3.38522 2.78689 2.4566 3.17707 2.12224 3.98751C1.7868 4.8006 2.17657 5.72824 2.99208 6.05773L4.99998 6.86897L4.99998 9.25304L3.18659 12.6635C2.77396 13.4396 3.06856 14.4032 3.84462 14.8158C4.62067 15.2285 5.5843 14.9339 5.99693 14.1578L8.00026 10.3901L10.0037 14.158C10.4163 14.934 11.3799 15.2286 12.156 14.816C12.932 14.4034 13.2266 13.4397 12.814 12.6637L11 9.252V6.86897L13.0079 6.05773C13.8234 5.72824 14.2132 4.80059 13.8777 3.98751C13.5434 3.17707 12.6147 2.78689 11.8019 3.11531L10.1905 3.76636C10.2294 3.60055 10.25 3.42768 10.25 3.25C10.25 2.00736 9.24264 1 8 1ZM3.04666 4.36889C3.17148 4.06635 3.52004 3.91989 3.82348 4.04249L7.25077 5.42721C7.73137 5.62138 8.26859 5.62138 8.74919 5.42721L12.1765 4.04249C12.4799 3.91989 12.8285 4.06635 12.9533 4.36889C13.077 4.66879 12.9341 5.00902 12.6333 5.13055L10.6254 5.94179C10.2474 6.09449 9.99998 6.46133 9.99998 6.86897V9.252C9.99998 9.41571 10.0402 9.57692 10.117 9.72147L11.9311 13.1332C12.0844 13.4216 11.9749 13.7797 11.6865 13.9331C11.3981 14.0864 11.04 13.9769 10.8866 13.6885L8.88321 9.92064C8.50709 9.21327 7.49343 9.21326 7.11731 9.92064L5.11398 13.6883C4.96063 13.9768 4.60251 14.0863 4.31409 13.9329C4.02567 13.7795 3.91618 13.4214 4.06954 13.133L5.88293 9.72251C5.95979 9.57796 5.99998 9.41675 5.99998 9.25304V6.86897C5.99998 6.46133 5.75255 6.09449 5.37459 5.94179L3.36669 5.13055C3.06589 5.00902 2.92294 4.66879 3.04666 4.36889Z" fill="#212121"/>
</svg>
